<svg xmlns="http://www.w3.org/2000/svg" width="20" height="20" viewBox="0 0 20 20">
    <path fill="#999" fill-rule="evenodd" d="M12.874 16.217h-3.54a2.042 2.042 0 1 1-3.42 0H5.74a.69.69 0 0 1-.648-.923l.614-1.707h-.07a.802.802 0 0 1-.783-.674L3.037 2.614.502 1.575C.027 1.381-.151.782.144.34.352.025.77-.081 1.13.065l2.904 1.189c.255.105.44.338.489.617l.15.856 14.566.663a.79.79 0 0 1 .62.354.85.85 0 0 1 .104.716l-2.63 8.555a.799.799 0 0 1-.758.572H7.171l-.45 1.25h9.854c.58 0 .907.655.52 1.17a.538.538 0 0 1-.43.21h-.372a2.042 2.042 0 1 1-3.42 0zM4.772 4.227l1.388 7.881h9.955l2.236-7.276-13.58-.605zM7.625 18a.667.667 0 1 0 0-1.333.667.667 0 0 0 0 1.333zm6.958 0a.667.667 0 1 0 0-1.333.667.667 0 0 0 0 1.333z"/>
</svg>
